<svg id="kids" viewBox="0 0 50 65" fill="none" xmlns="http://www.w3.org/2000/svg">
<path d="M20.9249 20.9894V19.9869C20.9249 19.4688 20.5049 19.0489 19.9869 19.0489C19.4688 19.0489 19.0488 19.4688 19.0488 19.9869V20.9894C19.0488 21.5075 19.4688 21.9275 19.9869 21.9275C20.5049 21.9275 20.9249 21.5075 20.9249 20.9894Z" fill="black"/>
<path d="M30.0127 21.9275C30.5308 21.9275 30.9508 21.5075 30.9508 20.9894V19.9869C30.9508 19.4688 30.5308 19.0489 30.0127 19.0489C29.4947 19.0489 29.0747 19.4688 29.0747 19.9869V20.9894C29.0747 21.5075 29.4946 21.9275 30.0127 21.9275Z" fill="black"/>
<path d="M8.95865 55.1416C8.44061 55.1416 8.02063 55.5616 8.02063 56.0796V63.0977C8.02063 63.6157 8.44061 64.0357 8.95865 64.0357C9.47669 64.0357 9.89668 63.6157 9.89668 63.0977V56.0796C9.89668 55.5616 9.47669 55.1416 8.95865 55.1416Z" fill="black"/>
<path d="M44.7626 42.4898L38.368 40.1645L34.2009 38.4977C33.7881 38.3325 33.3533 38.3175 32.9559 38.4287V34.4721C36.0842 32.2964 38.2861 28.8763 38.8365 24.9352H39.394C41.2222 24.9352 42.7902 23.5768 42.964 21.8426C43.0613 20.8706 42.7433 19.9002 42.0917 19.1801C41.7764 18.8316 41.3956 18.556 40.9767 18.3632V10.9637C40.9768 4.91837 36.0585 0 30.013 0H19.9871C13.9418 0 9.02341 4.91837 9.02341 10.9637V12.0308H1.94058C1.42254 12.0308 1.00256 12.4508 1.00256 12.9689C1.00256 13.4869 1.42254 13.9069 1.94058 13.9069H9.02353V14.974C9.02353 15.492 9.44351 15.912 9.96155 15.912C10.4796 15.912 10.8996 15.492 10.8996 14.974V13.9069H24.0702C21.3583 15.6185 16.5307 18.0463 10.9639 18.0463H10.6059C8.77777 18.0463 7.20964 19.4047 7.03592 21.1387C6.93849 22.1106 7.2563 23.081 7.90791 23.8013C8.5599 24.5219 9.49117 24.9353 10.4626 24.9353H11.1627C11.7129 28.8777 13.9146 32.2981 17.0439 34.4736V38.4289C16.6464 38.3177 16.2117 38.3327 15.7988 38.498L11.6317 40.1648L5.23717 42.4901C2.10467 43.6292 0 46.634 0 49.9671V63.0977C0 63.6157 0.419984 64.0357 0.938023 64.0357C1.45606 64.0357 1.87605 63.6157 1.87605 63.0977V49.967C1.87605 47.4198 3.48444 45.1235 5.87828 44.2529L11.5089 42.2054C12.57 44.1555 15.8162 49.3675 22.0568 53.4245V63.0977C22.0568 63.6157 22.4768 64.0357 22.9948 64.0357C23.5129 64.0357 23.9328 63.6157 23.9328 63.0977V49.9996H26.067V63.0977C26.067 63.6157 26.487 64.0357 27.0051 64.0357C27.5231 64.0357 27.9431 63.6157 27.9431 63.0977V53.424C30.6307 51.6766 33.0584 49.5206 35.1642 47.0078C35.497 46.6107 35.4449 46.0192 35.0478 45.6865C34.6507 45.3535 34.059 45.4057 33.7264 45.8029C32.0111 47.8495 30.071 49.6452 27.9431 51.1571V47.3076C27.9431 46.6858 28.2256 46.0994 28.7184 45.6991C31.2723 43.6238 32.7635 41.4051 33.4251 40.2673C33.4421 40.2382 33.4733 40.2276 33.5043 40.2398L36.7196 41.5259C36.5594 41.8102 36.3565 42.1548 36.1096 42.5462C35.8334 42.9845 35.9646 43.5637 36.4028 43.8401C36.841 44.1165 37.4202 43.985 37.6966 43.5469C38.0351 43.0102 38.2972 42.5548 38.4888 42.2048L44.1217 44.253C46.5156 45.1235 48.124 47.4198 48.124 49.9671V63.0977C48.124 63.6157 48.5439 64.0357 49.062 64.0357C49.58 64.0357 50 63.6157 50 63.0977V49.967C49.9996 46.6337 47.8951 43.6289 44.7626 42.4898ZM39.1008 10.9637V12.0308H33.9584V10.9637C33.9584 10.3753 34.4372 9.89664 35.0257 9.89664H39.036C39.0772 10.247 39.1008 10.6025 39.1008 10.9637ZM32.4038 13.9069C30.9724 14.8728 29.5559 15.4682 28.6754 15.7833L28.2062 13.9069H32.4038ZM36.9662 13.9069H39.1008V18.0463H38.0333C37.4449 18.0463 36.9662 17.5675 36.9662 16.9792V13.9069ZM10.8996 10.9637C10.8996 5.95282 14.9763 1.87605 19.9873 1.87605H30.0131C33.9941 1.87605 37.383 4.45023 38.6089 8.0206H35.0257C33.4027 8.0206 32.0824 9.34096 32.0824 10.9637V12.0308H10.8996V10.9637ZM12.9044 22.9946C12.9044 22.4765 12.4845 22.0565 11.9664 22.0565C11.4484 22.0565 11.0284 22.4765 11.0284 22.9946V23.0591H10.4626C10.0202 23.0591 9.5961 22.8708 9.29906 22.5424C8.99802 22.2098 8.85731 21.7776 8.90259 21.3256C8.98138 20.5387 9.72967 19.9222 10.6059 19.9222H10.9639C18.1506 19.9222 24.0286 16.3197 26.4424 14.5851L27.0977 17.2066C27.2043 17.6328 27.5868 17.9174 28.007 17.9174C28.0823 17.9174 28.1588 17.9082 28.2352 17.8891C28.3985 17.8483 32.0362 16.9148 35.0904 14.1965V16.9791C35.0904 18.602 36.4108 19.9222 38.0336 19.9222H39.5374C39.9798 19.9222 40.4038 20.1105 40.7009 20.4388C41.0019 20.7715 41.1428 21.2036 41.0974 21.6556C41.0186 22.4425 40.2705 23.059 39.3942 23.059H38.9711V23.0041C38.9711 22.4862 38.5514 22.0662 38.0335 22.066C38.0333 22.066 38.0332 22.066 38.0331 22.066C37.5153 22.066 37.0954 22.4855 37.0951 23.0034C37.0902 29.6679 31.6644 35.0899 25.0001 35.0899C18.3303 35.0901 12.9044 29.6642 12.9044 22.9946ZM13.2827 41.5248L16.4954 40.2397C16.5263 40.2274 16.5576 40.2381 16.5746 40.2672C17.2362 41.405 18.7273 43.6236 21.2812 45.6988C21.774 46.0993 22.0565 46.6856 22.0565 47.3075V51.156C17.086 47.6169 14.3096 43.3349 13.2827 41.5248ZM27.5351 44.2429C26.6021 45.0012 26.0669 46.1181 26.0669 47.3074V48.1236H23.9327V47.3074C23.9327 46.1181 23.3975 45.0011 22.4645 44.2428C20.8126 42.9004 19.6455 41.475 18.9199 40.4449V35.5721C20.7591 36.4647 22.822 36.9661 24.9999 36.9661C27.1777 36.9661 29.2406 36.4643 31.08 35.5712V40.4449C30.3543 41.475 29.1871 42.9004 27.5351 44.2429Z" fill="black"/>
<path d="M41.0411 55.1416C40.523 55.1416 40.103 55.5616 40.103 56.0796V63.0977C40.103 63.6157 40.523 64.0357 41.0411 64.0357C41.5591 64.0357 41.9791 63.6157 41.9791 63.0977V56.0796C41.9791 55.5616 41.5591 55.1416 41.0411 55.1416Z" fill="black"/>
<path d="M29.292 27.8063C29.7346 27.537 29.875 26.9599 29.6057 26.5173C29.3365 26.0748 28.7595 25.9343 28.3167 26.2036C27.3992 26.7619 26.2212 27.0695 24.9997 27.0695C23.7784 27.0695 22.6004 26.7619 21.6829 26.2036C21.2404 25.9343 20.6633 26.0748 20.3939 26.5173C20.1247 26.9599 20.265 27.5369 20.7076 27.8063C21.9324 28.5517 23.4166 28.9457 24.9997 28.9457C26.5829 28.9457 28.0672 28.5517 29.292 27.8063Z" fill="black"/>
</svg>
